<svg xmlns="http://www.w3.org/2000/svg" width="16" height="16"><g fill="#e0e0e0"><path d="M5.123 1H15v1.411H5.123z"/><path d="M9.356 1h1.41v9.877h-1.41z"/><path d="M7.945 10.172h4.233v.705H7.945zM5.828 1v2.822h-.705V1zM15 1v2.822h-.706V1z"/><path d="M5.828 2.411v1.411A1.411 1.411 0 0 1 7.24 2.411zm7.055 0a1.411 1.411 0 0 1 1.411 1.411V2.411zm-4.938 7.761a1.411 1.411 0 0 0 1.41-1.411v1.41zm4.233 0a1.411 1.411 0 0 1-1.411-1.411v1.41z"/></g><path d="M4.48 6.52a1 1 0 0 0-1 1v2.174a3 3 0 0 0-2 2.827h1v2h1v-2h2v2h1v-2h1a3 3 0 0 0-2-2.824V7.52a1 1 0 0 0-1-1z" fill="#e0e0e0"/></svg>